<mxfile host="65bd71144e">
    <diagram id="u_RkFO07nyA1GicoJsF7" name="第 1 页">
        <mxGraphModel dx="2356" dy="784" grid="1" gridSize="10" guides="1" tooltips="1" connect="1" arrows="1" fold="1" page="1" pageScale="1" pageWidth="850" pageHeight="1100" math="0" shadow="0">
            <root>
                <mxCell id="0"/>
                <mxCell id="1" parent="0"/>
                <mxCell id="34" value="" style="group" parent="1" vertex="1" connectable="0">
                    <mxGeometry x="-270" y="150" width="1720" height="190" as="geometry"/>
                </mxCell>
                <mxCell id="40" value="" style="group" parent="34" vertex="1" connectable="0">
                    <mxGeometry width="1720" height="190" as="geometry"/>
                </mxCell>
                <mxCell id="35" value="1" style="rounded=0;whiteSpace=wrap;html=1;" parent="40" vertex="1">
                    <mxGeometry width="120" height="190" as="geometry"/>
                </mxCell>
                <mxCell id="36" value="" style="rounded=0;whiteSpace=wrap;html=1;" parent="40" vertex="1">
                    <mxGeometry x="110" width="1610" height="190" as="geometry"/>
                </mxCell>
                <mxCell id="20" value="openMSP430" style="html=1;container=1;" parent="40" vertex="1">
                    <mxGeometry x="230" y="60" width="230" height="50" as="geometry"/>
                </mxCell>
                <mxCell id="33" value="" style="group" parent="1" vertex="1" connectable="0">
                    <mxGeometry x="-270" y="90" width="1720" height="60" as="geometry"/>
                </mxCell>
                <mxCell id="31" value="层级" style="rounded=0;whiteSpace=wrap;html=1;" parent="33" vertex="1">
                    <mxGeometry width="120" height="60" as="geometry"/>
                </mxCell>
                <mxCell id="32" value="模块名" style="rounded=0;whiteSpace=wrap;html=1;" parent="33" vertex="1">
                    <mxGeometry x="110" width="1610" height="60" as="geometry"/>
                </mxCell>
                <mxCell id="37" value="" style="group" parent="1" vertex="1" connectable="0">
                    <mxGeometry x="-270" y="340" width="1720" height="190" as="geometry"/>
                </mxCell>
                <mxCell id="44" value="" style="group" parent="37" vertex="1" connectable="0">
                    <mxGeometry width="1720" height="190" as="geometry"/>
                </mxCell>
                <mxCell id="38" value="2" style="rounded=0;whiteSpace=wrap;html=1;" parent="44" vertex="1">
                    <mxGeometry width="120" height="190" as="geometry"/>
                </mxCell>
                <mxCell id="39" value="" style="rounded=0;whiteSpace=wrap;html=1;" parent="44" vertex="1">
                    <mxGeometry x="110" width="1610" height="190" as="geometry"/>
                </mxCell>
                <mxCell id="30" value="" style="group" parent="44" vertex="1" connectable="0">
                    <mxGeometry x="190" y="80" width="1490" height="50" as="geometry"/>
                </mxCell>
                <mxCell id="14" value="omsp_watchdog" style="html=1;" parent="30" vertex="1">
                    <mxGeometry width="230" height="50" as="geometry"/>
                </mxCell>
                <mxCell id="15" value="omsp_execution_unit" style="html=1;" parent="30" vertex="1">
                    <mxGeometry x="240" width="230" height="50" as="geometry"/>
                </mxCell>
                <mxCell id="16" value="omsp_clock_module" style="html=1;" parent="30" vertex="1">
                    <mxGeometry x="500" width="230" height="50" as="geometry"/>
                </mxCell>
                <mxCell id="17" value="omsp_dbg" style="html=1;" parent="30" vertex="1">
                    <mxGeometry x="750" width="230" height="50" as="geometry"/>
                </mxCell>
                <mxCell id="18" value="omsp_multiplier" style="html=1;" parent="30" vertex="1">
                    <mxGeometry x="1000" width="230" height="50" as="geometry"/>
                </mxCell>
                <mxCell id="19" value="..." style="html=1;" parent="30" vertex="1">
                    <mxGeometry x="1260" width="230" height="50" as="geometry"/>
                </mxCell>
                <mxCell id="41" value="" style="group;fillColor=#b1ddf0;strokeColor=#10739e;" parent="1" vertex="1" connectable="0">
                    <mxGeometry x="-270" y="530" width="1720" height="190" as="geometry"/>
                </mxCell>
                <mxCell id="48" value="" style="group" parent="41" vertex="1" connectable="0">
                    <mxGeometry width="1720" height="190" as="geometry"/>
                </mxCell>
                <mxCell id="42" value="3" style="rounded=0;whiteSpace=wrap;html=1;" parent="48" vertex="1">
                    <mxGeometry width="120" height="190" as="geometry"/>
                </mxCell>
                <mxCell id="43" value="" style="rounded=0;whiteSpace=wrap;html=1;" parent="48" vertex="1">
                    <mxGeometry x="110" width="1610" height="190" as="geometry"/>
                </mxCell>
                <mxCell id="29" value="" style="group" parent="48" vertex="1" connectable="0">
                    <mxGeometry x="140" y="80" width="1500" height="50" as="geometry"/>
                </mxCell>
                <mxCell id="8" value="omsp_and_gate___05F_05F2_33" style="html=1;" parent="29" vertex="1">
                    <mxGeometry width="230" height="50" as="geometry"/>
                </mxCell>
                <mxCell id="9" value="omsp_and_gate___05F_05F0_1424" style="html=1;" parent="29" vertex="1">
                    <mxGeometry x="250" width="230" height="50" as="geometry"/>
                </mxCell>
                <mxCell id="10" value="omsp_sync_cell___05F_05F2_27" style="html=1;" parent="29" vertex="1">
                    <mxGeometry x="500" width="230" height="50" as="geometry"/>
                </mxCell>
                <mxCell id="11" value="omsp_scan_mux___05F_05F2_71" style="html=1;fillColor=#66CCFF;strokeColor=#0e8088;" parent="29" vertex="1">
                    <mxGeometry x="750" width="230" height="50" as="geometry"/>
                </mxCell>
                <mxCell id="12" value="omsp_scan_mux___05F_05F1_9" style="html=1;fillColor=#66CCFF;" parent="29" vertex="1">
                    <mxGeometry x="1000" width="230" height="50" as="geometry"/>
                </mxCell>
                <mxCell id="13" value="..." style="html=1;" parent="29" vertex="1">
                    <mxGeometry x="1270" width="230" height="50" as="geometry"/>
                </mxCell>
                <mxCell id="45" value="" style="group" parent="1" vertex="1" connectable="0">
                    <mxGeometry x="-270" y="710" width="1720" height="190" as="geometry"/>
                </mxCell>
                <mxCell id="46" value="4" style="rounded=0;whiteSpace=wrap;html=1;fillColor=#66CCFF;" parent="45" vertex="1">
                    <mxGeometry width="120" height="190" as="geometry"/>
                </mxCell>
                <mxCell id="47" value="" style="rounded=0;whiteSpace=wrap;html=1;" parent="45" vertex="1">
                    <mxGeometry x="110" width="1610" height="190" as="geometry"/>
                </mxCell>
                <mxCell id="27" value="" style="group" parent="45" vertex="1" connectable="0">
                    <mxGeometry x="150" y="80" width="1500" height="50" as="geometry"/>
                </mxCell>
                <mxCell id="21" value="AOI22_X1_LVT" style="html=1;" parent="27" vertex="1">
                    <mxGeometry width="230" height="50" as="geometry"/>
                </mxCell>
                <mxCell id="22" value="DFFR_X1_LVT" style="html=1;" parent="27" vertex="1">
                    <mxGeometry x="250" width="230" height="50" as="geometry"/>
                </mxCell>
                <mxCell id="23" value="INV_X1_LVT" style="html=1;" parent="27" vertex="1">
                    <mxGeometry x="500" width="230" height="50" as="geometry"/>
                </mxCell>
                <mxCell id="24" value="OAI211_X1_LVT" style="html=1;" parent="27" vertex="1">
                    <mxGeometry x="760" width="230" height="50" as="geometry"/>
                </mxCell>
                <mxCell id="25" value="OR3_X1_LVT" style="html=1;" parent="27" vertex="1">
                    <mxGeometry x="1010" width="230" height="50" as="geometry"/>
                </mxCell>
                <mxCell id="26" value="..." style="html=1;" parent="27" vertex="1">
                    <mxGeometry x="1270" width="230" height="50" as="geometry"/>
                </mxCell>
            </root>
        </mxGraphModel>
    </diagram>
</mxfile>